<?xml version="1.0" encoding="UTF-8" standalone="no"?>
<svg
   width="13.546667cm"
   height="13.546667cm"
   viewBox="0 0 511.99998 511.99995"
   fill="none"
   version="1.1"
   id="svg24"
   sodipodi:docname="bomplano.svg"
   inkscape:version="1.2.2 (b0a8486541, 2022-12-01)"
   inkscape:export-filename="bom-plano.png"
   inkscape:export-xdpi="96"
   inkscape:export-ydpi="96"
   xmlns:inkscape="http://www.inkscape.org/namespaces/inkscape"
   xmlns:sodipodi="http://sodipodi.sourceforge.net/DTD/sodipodi-0.dtd"
   xmlns="http://www.w3.org/2000/svg"
   xmlns:svg="http://www.w3.org/2000/svg">
  <defs
     id="defs28">
    <inkscape:path-effect
       effect="fillet_chamfer"
       id="path-effect300"
       is_visible="true"
       lpeversion="1"
       nodesatellites_param="F,0,0,1,0,1.3229167,0,1 @ F,0,0,1,0,1.3229167,0,1 @ F,0,0,1,0,1.3229167,0,1 @ F,0,0,1,0,1.3229167,0,1"
       unit="px"
       method="auto"
       mode="F"
       radius="50"
       chamfer_steps="1"
       flexible="false"
       use_knot_distance="true"
       apply_no_radius="true"
       apply_with_radius="true"
       only_selected="false"
       hide_knots="false" />
  </defs>
  <sodipodi:namedview
     id="namedview26"
     pagecolor="#505050"
     bordercolor="#eeeeee"
     borderopacity="1"
     inkscape:showpageshadow="0"
     inkscape:pageopacity="0"
     inkscape:pagecheckerboard="0"
     inkscape:deskcolor="#505050"
     showgrid="false"
     inkscape:zoom="0.59863292"
     inkscape:cx="-46.773238"
     inkscape:cy="218.83193"
     inkscape:window-width="1366"
     inkscape:window-height="715"
     inkscape:window-x="-8"
     inkscape:window-y="-8"
     inkscape:window-maximized="1"
     inkscape:current-layer="svg24"
     inkscape:document-units="cm" />
  <g
     id="g336"
     style="stroke-width:0.905096"
     transform="matrix(0.97656253,0,0,1.25,6.0000166,-190.64936)">
    <path
       d="m 137.29961,323.76713 c 1.82543,-7.02251 2.73815,-14.56055 2.73815,-22.61409 0,-6.2734 -0.58108,-12.2201 -1.74254,-17.83881 -1.1057,-5.71192 -2.68241,-10.90948 -4.72872,-15.59121 -1.99059,-4.68208 -4.3971,-8.80239 -7.2175,-12.36072 -2.76535,-3.55843 -5.8073,-6.32085 -9.12585,-8.28734 1.77038,-4.58836 3.18057,-9.55147 4.23127,-14.88895 1.0507,-5.4313 1.57603,-11.19025 1.57603,-17.27696 0,-7.86581 -0.91205,-15.31032 -2.73748,-22.33354 -1.76972,-7.0231 -4.20342,-13.1098 -7.30042,-18.26008 -3.04195,-5.24393 -6.63711,-9.36414 -10.78479,-12.36068 -4.148357,-3.09018 -8.545457,-4.63526 -13.191299,-4.63526 H -8.9193499e-6 V 358.74284 H 17.006916 V 186.11427 h 72.009545 c 2.322902,0 4.507864,0.74918 6.554195,2.24738 2.101356,1.49828 3.926784,3.55844 5.475654,6.18036 1.54817,2.62201 2.76533,5.71215 3.65019,9.27058 0.88486,3.46465 1.32729,7.16358 1.32729,11.09646 0,3.93297 -0.44262,7.67865 -1.32729,11.2371 -0.88486,3.46465 -2.10207,6.50809 -3.65019,9.12997 -1.548842,2.62205 -3.37427,4.68204 -5.475654,6.18039 -2.046312,1.49826 -4.231274,2.24734 -6.554195,2.24734 H 25.46892 v 28.79526 h 80.55488 c 2.3229,0 4.5072,0.74941 6.55351,2.24726 2.10206,1.49818 3.92678,3.55784 5.47564,6.18022 1.54884,2.62237 2.76534,5.66476 3.6502,9.12939 0.88486,3.46579 1.32729,7.16407 1.32729,11.09706 0,3.93295 -0.44262,7.67839 -1.32729,11.23742 -0.88486,3.46467 -2.10136,6.50817 -3.6502,9.12941 -1.54883,2.62237 -3.3736,4.68204 -5.47564,6.18022 -2.04631,1.49817 -4.23061,2.24726 -6.55351,2.24726 H 25.46892 v 28.79547 h 80.55488 c 4.64585,0 9.04293,-1.49817 13.19062,-4.49452 4.14837,-2.99747 7.74283,-7.07087 10.78478,-12.22126 3.09702,-5.24361 5.5307,-11.33062 7.30041,-18.25991 z"
       fill="#ffffff"
       id="path2"
       style="stroke-width:0.158515" />
    <path
       fill-rule="evenodd"
       clip-rule="evenodd"
       d="m 315.06818,297.36043 c 2.59954,-12.26726 3.89893,-25.37671 3.89893,-39.32938 0,-13.859 -1.29943,-26.87512 -3.89893,-39.0485 -2.59952,-12.26705 -6.30545,-22.94227 -11.11711,-32.02553 -4.75594,-9.1768 -10.48032,-16.38724 -17.17248,-21.63116 -6.69216,-5.33759 -14.13121,-8.00637 -22.31648,-8.00637 h -39.57254 c -8.24031,0 -15.73441,2.66878 -22.48229,8.00637 -6.74721,5.24392 -12.52664,12.45436 -17.33899,21.63116 -4.75593,9.08326 -8.434,19.75848 -11.03352,32.02553 -2.59954,12.17338 -3.89893,25.1895 -3.89893,39.0485 0,13.95267 1.29944,27.06212 3.89893,39.32938 2.59954,12.26729 6.27759,22.94203 11.03352,32.02541 4.81235,9.08338 10.59178,16.24745 17.33899,21.49105 6.74788,5.24361 14.24198,7.86599 22.48229,7.86599 h 39.57254 c 8.18527,0 15.62432,-2.62238 22.31648,-7.86599 6.69216,-5.2436 12.41654,-12.40767 17.17248,-21.49105 4.81166,-9.08338 8.51759,-19.75812 11.11711,-32.02541 z m -15.68004,-67.28141 c 1.71468,8.70872 2.57235,18.02602 2.57235,27.95203 0,9.92602 -0.85767,19.29049 -2.57235,28.09196 -1.71399,8.70942 -4.20341,16.34064 -7.46624,22.896 -3.20777,6.461 -7.13458,11.56423 -11.78042,15.3108 -4.59079,3.74542 -9.81701,5.61756 -15.67937,5.61756 h -39.57254 c -5.86234,0 -11.1443,-1.87216 -15.84519,-5.61753 -4.64584,-3.7466 -8.60051,-8.84983 -11.86333,-15.31083 -3.20778,-6.55536 -5.69652,-14.18658 -7.46691,-22.896 -1.71399,-8.80147 -2.57166,-18.16594 -2.57166,-28.09196 0,-9.92601 0.85767,-19.24331 2.57164,-27.95203 1.77038,-8.70861 4.25912,-16.29359 7.46691,-22.75493 3.26281,-6.55494 7.2175,-11.70517 11.86333,-15.45083 4.7009,-3.83933 9.98285,-5.75899 15.8452,-5.75899 h 39.57254 c 5.86235,0 11.08857,1.91966 15.67936,5.75899 4.64585,3.74566 8.57265,8.89593 11.78042,15.45083 3.26281,6.46132 5.75225,14.04632 7.46626,22.75493 z"
       fill="#ffffff"
       id="path4"
       style="stroke-width:0.158515" />
    <path
       d="m 426.3019,358.74284 h 17.00664 V 258.03105 c 0,-9.92601 1.10655,-19.24331 3.3187,-27.95203 2.26701,-8.70861 5.30917,-16.29359 9.1252,-22.75493 3.87198,-6.55494 8.37961,-11.70517 13.52293,-15.45083 5.14333,-3.83933 10.64685,-5.75899 16.50919,-5.75899 h 9.20876 v 172.62857 h 17.00662 V 157.31949 h -26.21538 c -5.41991,0 -10.64684,1.21734 -15.67937,3.65203 -4.9782,2.34103 -9.65119,5.6653 -14.02045,9.97281 -4.36898,4.30752 -8.35175,9.45779 -11.94624,15.45093 -3.59529,5.99304 -6.69231,12.64161 -9.2918,19.94558 -2.65458,-7.30397 -5.77945,-13.95254 -9.3746,-19.94558 -3.59516,-5.99314 -7.57701,-11.14341 -11.94625,-15.45093 -4.36924,-4.30749 -9.0708,-7.63178 -14.10334,-9.97281 -4.97749,-2.43469 -10.17654,-3.65203 -15.59646,-3.65203 h -26.13318 v 201.42335 h 17.00734 V 186.11427 h 9.12584 c 5.86235,0 11.36519,1.91966 16.5085,5.75899 5.19904,3.74566 9.70692,8.89593 13.52295,15.45083 3.87174,6.46132 6.91303,14.04632 9.12585,22.75493 2.21216,8.70872 3.31856,18.02602 3.31856,27.95203 z"
       fill="#ffffff"
       id="path6"
       style="stroke-width:0.158515" />
  </g>
  <g
     id="g343"
     style="stroke-width:0.905095"
     transform="matrix(0.97656369,0,0,1.2500015,5.9997147,-189.10968)">
    <path
       d="m 92.089347,499.37048 c 2.854156,-4.83804 5.101044,-10.47067 6.731172,-16.89791 1.675221,-6.49644 2.512831,-13.40747 2.512831,-20.7332 0,-7.32572 -0.83761,-14.20219 -2.512831,-20.62952 -1.630128,-6.42733 -3.877191,-12.02519 -6.731172,-16.79389 -2.81887,-4.83772 -6.124253,-8.63879 -9.921207,-11.40322 -3.79692,-2.83354 -7.859711,-4.25031 -12.183278,-4.25031 H 3.0122913e-4 V 557.31946 H 12.552267 V 429.91393 h 57.432595 c 2.613342,0 5.060908,0.82936 7.348106,2.48799 2.282137,1.65864 4.263398,3.93934 5.938653,6.84192 1.710468,2.83351 3.059718,6.18545 4.037697,10.05566 0.983145,3.8702 1.469656,8.01682 1.469656,12.43987 0,4.42304 -0.486511,8.60424 -1.469656,12.54357 -0.978258,3.87019 -2.327159,7.25659 -4.037697,10.15926 -1.67522,2.90265 -3.656481,5.21782 -5.938653,6.9456 -2.287373,1.65862 -4.734903,2.48813 -7.348106,2.48813 H 19.593423 v 20.94038 h 50.391439 c 4.323567,0 8.386358,-1.38256 12.183278,-4.14681 3.796954,-2.76426 7.102337,-6.53058 9.921207,-11.29902 z"
       fill="#ffffff"
       id="path8"
       style="stroke-width:0.158514" />
    <path
       d="m 125.50443,557.31946 h 66.00253 V 536.06745 H 138.0589 v -95.47588 h -12.55447 z"
       fill="#ffffff"
       id="path10"
       style="stroke-width:0.158514" />
    <path
       d="m 281.07357,557.31946 h 12.54946 V 440.17689 h -45.18709 c -4.77501,0 -9.28421,1.55496 -13.52754,4.6649 -4.24836,3.04092 -7.93995,7.22212 -11.08486,12.54356 -3.13999,5.32153 -5.63271,11.54149 -7.46847,18.65991 -1.83576,7.11841 -2.75365,14.75513 -2.75365,22.90995 v 58.36424 h 12.66983 v -58.36424 c 0,-5.18283 0.57167,-10.02084 1.71535,-14.51301 1.18383,-4.56132 2.77877,-8.5352 4.77501,-11.92159 2.00119,-3.38642 4.34869,-6.04721 7.04217,-7.98226 2.69361,-2.00418 5.57251,-3.00631 8.63212,-3.00631 h 32.63764 v 42.08799 h -48.31193 v 21.66642 h 48.31193 z"
       fill="#ffffff"
       id="path12"
       style="stroke-width:0.158514" />
    <path
       d="m 385.27118,534.82418 c 1.54992,7.25583 2.32716,14.75453 2.32716,22.49528 h 12.48925 V 440.59157 h -12.48908 v 57.74201 c -3.63645,-8.29342 -7.79954,-15.86101 -12.49431,-22.703 -4.64961,-6.91105 -9.50991,-12.85457 -14.57081,-17.83053 -5.02078,-5.04503 -10.08168,-9.01892 -15.18273,-11.92159 -5.0609,-2.97172 -9.84093,-4.66492 -14.33007,-5.0796 v -0.20741 h -6.79636 V 557.31934 H 336.7787 V 463.2943 c 3.51106,1.45126 7.20265,3.69735 11.07984,6.73821 3.91732,2.97179 7.75438,6.66918 11.5112,11.09223 3.75682,4.35404 7.32803,9.33 10.71369,14.9277 3.43071,5.59812 6.43022,11.64549 9.00329,18.14212 2.61334,6.42698 4.6747,13.30321 6.18446,20.62951 z"
       fill="#ffffff"
       id="path14"
       style="stroke-width:0.158514" />
    <path
       fill-rule="evenodd"
       clip-rule="evenodd"
       d="m 509.73251,521.55495 c 1.50979,-7.11911 2.26713,-14.72058 2.26713,-22.80694 0,-8.01675 -0.75734,-15.54977 -2.26713,-22.59906 -1.50975,-7.0493 -3.67155,-13.2001 -6.49039,-18.45252 -2.77375,-5.32153 -6.12429,-9.50273 -10.04158,-12.54356 -3.87719,-3.04093 -8.20582,-4.5613 -12.98082,-4.5613 H 458.4262 c -4.78003,0 -9.1237,1.52039 -13.041,4.56132 -3.92235,3.04086 -7.28793,7.22203 -10.1068,12.54356 -2.77354,5.25238 -4.91545,11.40322 -6.4252,18.45252 -1.50979,7.04929 -2.26713,14.58231 -2.26713,22.59905 0,8.08637 0.75734,15.68784 2.26713,22.80694 1.50979,7.04862 3.65149,13.23442 6.4252,18.5557 2.8189,5.32129 6.18445,9.53771 10.1068,12.6476 3.9173,3.04027 8.26097,4.5612 13.041,4.5612 h 21.79352 c 4.775,0 9.10363,-1.521 12.98082,-4.5612 3.91729,-3.10987 7.26783,-7.32632 10.04158,-12.6476 2.8189,-5.32129 4.98064,-11.50708 6.49039,-18.55571 z m -11.63157,-37.21644 c 0.89764,4.49219 1.34436,9.29542 1.34436,14.4095 0,5.11405 -0.44637,9.95213 -1.34436,14.51335 -0.85785,4.49243 -2.1216,8.43117 -3.79695,11.8179 -1.63509,3.38672 -3.63139,6.08134 -5.99886,8.08552 -2.36729,1.93539 -5.06091,2.90265 -8.08541,2.90265 H 458.4262 c -3.02447,0 -5.73805,-0.96726 -8.14562,-2.90265 -2.36729,-2.00418 -4.3888,-4.69877 -6.05906,-8.08552 -1.63508,-3.38671 -2.89918,-7.32547 -3.79692,-11.8179 -0.85785,-4.5612 -1.28887,-9.39928 -1.28887,-14.51335 0,-5.11406 0.43137,-9.91733 1.28887,-14.4095 0.89799,-4.56132 2.16173,-8.50055 3.79692,-11.8179 1.67033,-3.38642 3.69163,-6.04721 6.05906,-7.98226 2.40743,-2.00418 5.12111,-3.00631 8.14562,-3.00631 h 21.79352 c 3.02447,0 5.71798,1.00213 8.08541,3.00631 2.36729,1.93504 4.36374,4.59589 5.99886,7.98226 1.67522,3.31735 2.93931,7.2566 3.79695,11.8179 z"
       fill="#ffffff"
       id="path16"
       style="stroke-width:0.158514" />
  </g>
</svg>
